<svg width="24" height="24" viewBox="0 0 24 24" fill="none" xmlns="http://www.w3.org/2000/svg">
<g id="harvest 2" clip-path="url(#clip0_1325_4271)">
<g id="Group">
<path id="Vector" d="M16.0359 1.05469C15.7688 1.18125 15.6 1.30781 15.3 1.60781C14.8594 2.05312 14.5969 2.5125 14.4563 3.1125L14.3766 3.45937L14.0625 3.4875C12.1219 3.67969 10.9547 5.325 10.5891 8.36719C10.4906 9.20156 10.4766 9.225 9.42656 10.2656C8.88281 10.8094 8.41406 11.3156 8.27813 11.5125L8.05313 11.8453L7.64531 11.7141C7.42031 11.6437 7.0875 11.5594 6.90938 11.5312C6.31875 11.4328 6.36094 11.4562 6.39844 11.2594C6.50156 10.6687 6.975 10.0828 7.57031 9.79687C7.97344 9.60469 8.0625 9.50156 8.0625 9.22969C8.0625 9.13594 8.01562 9.04219 7.92656 8.94844C7.75313 8.775 7.575 8.775 7.19531 8.93437C6.75469 9.12187 6.76406 9.12187 6.73125 8.93906C6.675 8.65312 6.375 8.11406 6.10313 7.81875C5.56406 7.2375 4.87969 6.93281 4.10156 6.93281C3.14063 6.92812 2.95313 7.11094 2.95313 8.03906C2.95313 8.84531 3.19688 9.44062 3.74531 9.98437C4.20938 10.4437 4.86094 10.7812 5.29219 10.7812C5.50313 10.7812 5.52656 10.8234 5.46563 11.1187C5.4375 11.2641 5.4 11.3953 5.38125 11.4141C5.36719 11.4281 5.20781 11.4609 5.03438 11.4891C3.84375 11.6531 2.7 12.2156 1.80938 13.0781C0.843751 14.0156 0.271876 15.1219 0.0703137 16.4531C-0.299999 18.8719 0.970314 21.3328 3.16875 22.4625C4.01719 22.8984 4.87969 23.1094 5.83594 23.1094C6.99844 23.1094 8.00156 22.8234 9.00469 22.2094L9.17344 22.1062L9.75469 22.3266C10.5188 22.6172 11.325 22.8422 12.0469 22.9688C12.7922 23.1 14.2266 23.1469 14.9484 23.0625C17.9391 22.7203 20.3484 21.1922 22.0781 18.5344C22.8609 17.3344 23.625 15.4359 23.8312 14.1797C24.0187 13.0547 24.0422 11.4047 23.8875 10.5328C23.8219 10.1812 23.8078 10.1578 23.5172 9.84844C23.0531 9.35625 22.8469 8.925 22.6875 8.10469C22.6172 7.74844 22.4906 7.63125 22.1344 7.60312C21.6422 7.57031 21.0094 7.8 20.6578 8.14219C20.4703 8.32031 20.4609 8.35312 20.3906 9.11719C20.3203 9.85781 20.2922 9.9375 20.0438 10.0687C19.8188 10.1906 19.8047 10.2187 19.5188 10.9922C19.425 11.25 19.2422 11.6672 19.1156 11.9203L18.8859 12.3844L18.4875 11.7328C17.8734 10.7437 17.7703 10.5328 17.7 10.2C17.6391 9.92344 17.6438 9.82031 17.7234 9.24844C18.0469 6.87656 17.7281 5.31562 16.7203 4.35C16.4344 4.07812 15.8953 3.76406 15.5297 3.65156C15.3 3.58594 15.2953 3.55781 15.4031 3.18281C15.5813 2.57812 15.9844 2.11875 16.575 1.84687C16.9734 1.66406 17.0766 1.51875 17.0156 1.23281C16.9922 1.14375 16.9688 1.06406 16.9594 1.05937C16.6734 0.84375 16.4906 0.84375 16.0359 1.05469ZM14.9766 4.47656C15.8766 4.6875 16.4484 5.23125 16.725 6.14062C16.9453 6.85781 16.9734 8.02031 16.8 9.04687C16.6031 10.2094 16.725 10.6687 17.5688 12.0328C17.775 12.3609 18.0234 12.7922 18.1172 12.9891L18.2953 13.3453L18.0281 13.7016C16.5562 15.6609 14.4469 17.1187 12.1219 17.7891C11.8969 17.8547 11.7047 17.9062 11.6953 17.9062C11.6906 17.9062 11.6859 17.6062 11.6859 17.2359C11.6813 16.0312 11.4 15.1078 10.7063 14.0391C10.4063 13.5703 9.675 12.8109 9.24844 12.525C9.08906 12.4172 8.94844 12.3094 8.93438 12.2859C8.88281 12.2062 9.34219 11.6484 9.8625 11.1562C10.8047 10.2703 11.0063 10.0359 11.2078 9.63281C11.4 9.24844 11.4 9.24844 11.6203 7.82812C11.7469 7.04062 11.9063 6.49687 12.1969 5.91094C12.5766 5.1375 13.1391 4.63125 13.8047 4.47187C14.1328 4.39219 14.6109 4.39219 14.9766 4.47656ZM4.84688 8.03437C5.46094 8.31562 5.90156 9.00937 5.90625 9.68906C5.90625 9.88594 5.90156 9.89062 5.74219 9.89062C4.77188 9.89062 3.96094 9.15469 3.9 8.22187C3.88125 7.92187 3.88594 7.88437 3.96563 7.86562C4.13438 7.83281 4.6125 7.92187 4.84688 8.03437ZM21.9094 8.86875C22.0453 9.37031 22.3687 9.97969 22.6828 10.3172L22.9641 10.6266L23.0156 11.1375C23.1047 12.1078 23.0391 13.4344 22.8516 14.2922C22.5375 15.7641 21.6938 17.5875 20.7938 18.75C19.5562 20.3484 17.9625 21.4219 16.1297 21.8953C13.4906 22.575 10.5281 22.0031 7.78125 20.2828C7.29375 19.9734 6.375 19.3125 6.375 19.2609C6.375 19.2469 6.46406 19.1297 6.57188 19.0078C6.79219 18.7547 6.68906 18.7641 7.64063 18.9375C8.325 19.0687 9.94219 19.1156 10.6266 19.0359C13.2047 18.7219 15.4641 17.6484 17.3859 15.8203C18.7406 14.5312 19.8094 12.9141 20.4563 11.1797C20.55 10.9266 20.6156 10.8281 20.7234 10.7625C21.0703 10.5609 21.2391 10.1297 21.3234 9.2625C21.3516 8.98125 21.3797 8.74687 21.3844 8.74219C21.3938 8.7375 21.4641 8.69531 21.5391 8.65781C21.7828 8.52656 21.8203 8.55 21.9094 8.86875ZM7.11563 12.5344C8.52188 12.9234 9.6 13.8141 10.2422 15.1172C10.5422 15.7266 10.6688 16.1578 10.7297 16.8281C10.7719 17.2641 10.7438 18.0047 10.6875 18.0656C10.6734 18.075 10.4672 18.0984 10.2234 18.1219L9.78281 18.1547L9.81563 18.0422C9.88125 17.8031 9.9 17.0719 9.84844 16.7484C9.76406 16.2141 9.58125 15.675 9.43594 15.5672C9.2625 15.4266 8.99531 15.4359 8.84531 15.5859C8.67188 15.7641 8.6625 15.8859 8.78906 16.3172C8.85469 16.5328 8.92031 16.8562 8.93438 17.0391C8.9625 17.3672 8.8875 18.0375 8.81719 18.1078C8.76562 18.1594 7.73906 18.0234 7.22813 17.9062C6.66094 17.7703 6.5625 17.7797 6.29531 17.9906C5.59688 18.5437 5.17969 19.3406 5.41406 19.6734C5.5875 19.9172 6.88125 20.8594 7.69688 21.3328L8.16563 21.6047L7.94063 21.7172C7.64531 21.8672 7.05 22.05 6.62813 22.125C6.14531 22.2094 5.14219 22.1672 4.65469 22.0359C1.875 21.3094 0.290626 18.3984 1.20469 15.7031C1.76719 14.0437 3.17813 12.8156 4.95 12.4453C5.47031 12.3375 6.56719 12.3844 7.11563 12.5344Z" fill="#AAAAAA"/>
<path id="Vector_2" d="M14.8266 5.37683C14.6438 5.40964 14.4844 5.62058 14.4844 5.82214C14.4844 5.98151 14.5172 6.03776 14.7375 6.25339C14.9438 6.46433 15 6.5487 15.0469 6.75495C15.1313 7.16276 15.1547 7.77214 15.0984 8.25026C15.0656 8.49401 15.0328 8.84558 15.0141 9.03308C14.9859 9.3612 14.9906 9.37058 15.1313 9.5112C15.375 9.75964 15.7313 9.67995 15.8672 9.35651C15.9 9.27683 15.9656 8.91589 16.0078 8.55495C16.1344 7.53776 16.0547 6.62839 15.7922 6.07526C15.5906 5.63933 15.1453 5.31589 14.8266 5.37683Z" fill="#AAAAAA"/>
<path id="Vector_3" d="M17.6953 18.6614C17.3859 18.7504 17.2875 19.1395 17.5125 19.402C17.7656 19.702 18.2813 19.5145 18.2813 19.1161C18.2813 18.8723 18.2156 18.7551 18.0234 18.6754C17.9344 18.6379 17.8547 18.6098 17.85 18.6145C17.8406 18.6145 17.775 18.6379 17.6953 18.6614Z" fill="#AAAAAA"/>
<path id="Vector_4" d="M16.3594 19.4342C15.4688 19.8514 14.2875 20.1561 13.5422 20.1561C13.1625 20.1561 12.9328 20.5639 13.1438 20.878C13.2656 21.0655 13.4203 21.1076 13.8984 21.0748C15.0188 20.9905 16.8563 20.3951 17.0906 20.0389C17.2266 19.8326 17.2031 19.603 17.025 19.4483C16.8375 19.2795 16.6922 19.2748 16.3594 19.4342Z" fill="#AAAAAA"/>
<path id="Vector_5" d="M8.0578 14.4328C7.76249 14.7328 7.9828 15.2344 8.40936 15.2344C8.47499 15.2344 8.59686 15.1734 8.68124 15.0984C8.8078 14.9859 8.83593 14.9297 8.83593 14.7656C8.83593 14.6016 8.8078 14.5453 8.68124 14.4328C8.47499 14.2453 8.2453 14.2453 8.0578 14.4328Z" fill="#AAAAAA"/>
</g>
</g>
<defs>
<clipPath id="clip0_1325_4271">
<rect width="24" height="24" fill="white"/>
</clipPath>
</defs>
</svg>
